name p8_grf_mean_speed_1.8
datacolumns 13
datarows 40
range 0.0000000000 0.3900000000
endheader
time	grf_x_l_mean	grf_x_l_var	grf_y_l_mean	grf_y_l_var	grf_z_l_mean	grf_z_l_var	grf_x_r_mean	grf_x_r_var	grf_y_r_mean	grf_y_r_var	grf_z_r_mean	grf_z_r_var
0.0000000000	169.1634797654	1.0000000000	602.0856932959	1.0000000000	0.0000000000	0.0000000000	5.3336442580	1.0000000000	11.7697320220	1.0000000000	0.0000000000	0.0000000000
0.0100000000	174.6830632900	1.0000000000	576.6220077586	1.0000000000	0.0000000000	0.0000000000	4.0125070563	1.0000000000	58.3351390248	1.0000000000	0.0000000000	0.0000000000
0.0200000000	174.7025856790	1.0000000000	538.5291228006	1.0000000000	0.0000000000	0.0000000000	-1.0124905441	1.0000000000	135.5331196115	1.0000000000	0.0000000000	0.0000000000
0.0300000000	168.0217475488	1.0000000000	487.8949005709	1.0000000000	0.0000000000	0.0000000000	-12.2953484801	1.0000000000	243.5391883178	1.0000000000	0.0000000000	0.0000000000
0.0400000000	153.7423806783	1.0000000000	426.3779769351	1.0000000000	0.0000000000	0.0000000000	-33.0023728963	1.0000000000	372.0554306179	1.0000000000	0.0000000000	0.0000000000
0.0500000000	131.6405194657	1.0000000000	357.2511940140	1.0000000000	0.0000000000	0.0000000000	-61.9958979705	1.0000000000	502.8578007707	1.0000000000	0.0000000000	0.0000000000
0.0600000000	104.5694274461	1.0000000000	285.2151513237	1.0000000000	0.0000000000	0.0000000000	-92.8313512524	1.0000000000	619.2253512780	1.0000000000	0.0000000000	0.0000000000
0.0700000000	77.1251931947	1.0000000000	216.1401604907	1.0000000000	0.0000000000	0.0000000000	-119.8354199761	1.0000000000	711.5266225645	1.0000000000	0.0000000000	0.0000000000
0.0800000000	52.1168138342	1.0000000000	155.0942496148	1.0000000000	0.0000000000	0.0000000000	-140.6148966915	1.0000000000	778.0715848623	1.0000000000	0.0000000000	0.0000000000
0.0900000000	31.8583268131	1.0000000000	104.9121901160	1.0000000000	0.0000000000	0.0000000000	-155.5328035073	1.0000000000	825.0531667705	1.0000000000	0.0000000000	0.0000000000
0.1000000000	17.1356661264	1.0000000000	66.5994515516	1.0000000000	0.0000000000	0.0000000000	-163.9686367673	1.0000000000	860.0473542271	1.0000000000	0.0000000000	0.0000000000
0.1100000000	7.6180974745	1.0000000000	39.7453243468	1.0000000000	0.0000000000	0.0000000000	-165.6818340259	1.0000000000	886.2486886865	1.0000000000	0.0000000000	0.0000000000
0.1200000000	2.2147768218	1.0000000000	22.6515234759	1.0000000000	0.0000000000	0.0000000000	-162.0569667380	1.0000000000	903.8495907462	1.0000000000	0.0000000000	0.0000000000
0.1300000000	-0.2320751049	1.0000000000	12.8864675343	1.0000000000	0.0000000000	0.0000000000	-154.1492614664	1.0000000000	913.0771993672	1.0000000000	0.0000000000	0.0000000000
0.1400000000	-0.1899675016	1.0000000000	8.2198716842	1.0000000000	0.0000000000	0.0000000000	-143.2511239776	1.0000000000	914.3919176026	1.0000000000	0.0000000000	0.0000000000
0.1500000000	0.5316376062	1.0000000000	6.7259592117	1.0000000000	0.0000000000	0.0000000000	-130.6039162853	1.0000000000	907.8346408178	1.0000000000	0.0000000000	0.0000000000
0.1600000000	1.1762816763	1.0000000000	6.6714801850	1.0000000000	0.0000000000	0.0000000000	-117.5087091990	1.0000000000	893.2063212229	1.0000000000	0.0000000000	0.0000000000
0.1700000000	1.7762541289	1.0000000000	6.9498284480	1.0000000000	0.0000000000	0.0000000000	-103.6897807951	1.0000000000	870.8202948720	1.0000000000	0.0000000000	0.0000000000
0.1800000000	2.1343783095	1.0000000000	7.0740762702	1.0000000000	0.0000000000	0.0000000000	-89.4186072250	1.0000000000	842.0946519162	1.0000000000	0.0000000000	0.0000000000
0.1900000000	2.0280955164	1.0000000000	6.9534860778	1.0000000000	0.0000000000	0.0000000000	-75.8270905724	1.0000000000	808.7547843079	1.0000000000	0.0000000000	0.0000000000
0.2000000000	1.6167246347	1.0000000000	6.7155643155	1.0000000000	0.0000000000	0.0000000000	-62.7723276632	1.0000000000	771.8130939442	1.0000000000	0.0000000000	0.0000000000
0.2100000000	1.5475637890	1.0000000000	6.2515087616	1.0000000000	0.0000000000	0.0000000000	-50.3065686751	1.0000000000	731.8401138207	1.0000000000	0.0000000000	0.0000000000
0.2200000000	1.2689490538	1.0000000000	5.3696798272	1.0000000000	0.0000000000	0.0000000000	-38.7188911661	1.0000000000	689.8277341138	1.0000000000	0.0000000000	0.0000000000
0.2300000000	0.6792571971	1.0000000000	4.3337360927	1.0000000000	0.0000000000	0.0000000000	-28.6111277581	1.0000000000	647.1960133089	1.0000000000	0.0000000000	0.0000000000
0.2400000000	0.3698638584	1.0000000000	3.5233247573	1.0000000000	0.0000000000	0.0000000000	-19.7501293998	1.0000000000	605.5427471731	1.0000000000	0.0000000000	0.0000000000
0.2500000000	0.3778203325	1.0000000000	2.9431335072	1.0000000000	0.0000000000	0.0000000000	-11.8676024661	1.0000000000	566.5165450973	1.0000000000	0.0000000000	0.0000000000
0.2600000000	0.4143426591	1.0000000000	2.4206604485	1.0000000000	0.0000000000	0.0000000000	-5.4475804959	1.0000000000	530.9857901810	1.0000000000	0.0000000000	0.0000000000
0.2700000000	0.4237459707	1.0000000000	1.9498957756	1.0000000000	0.0000000000	0.0000000000	-0.0936661731	1.0000000000	498.9458482617	1.0000000000	0.0000000000	0.0000000000
0.2800000000	0.6861858634	1.0000000000	1.5947057664	1.0000000000	0.0000000000	0.0000000000	4.6178917646	1.0000000000	470.6150242311	1.0000000000	0.0000000000	0.0000000000
0.2900000000	0.8086204883	1.0000000000	1.2438991842	1.0000000000	0.0000000000	0.0000000000	8.5985642940	1.0000000000	446.7079099166	1.0000000000	0.0000000000	0.0000000000
0.3000000000	0.5194464693	1.0000000000	0.8735815933	1.0000000000	0.0000000000	0.0000000000	11.8209549387	1.0000000000	427.7162471196	1.0000000000	0.0000000000	0.0000000000
0.3100000000	0.2231564110	1.0000000000	0.5599695073	1.0000000000	0.0000000000	0.0000000000	14.8218216468	1.0000000000	413.5145852698	1.0000000000	0.0000000000	0.0000000000
0.3200000000	0.0239024759	1.0000000000	0.2936864656	1.0000000000	0.0000000000	0.0000000000	17.9317060434	1.0000000000	403.7940121798	1.0000000000	0.0000000000	0.0000000000
0.3300000000	-0.2300282863	1.0000000000	0.0528894118	1.0000000000	0.0000000000	0.0000000000	21.0394515039	1.0000000000	398.4792057448	1.0000000000	0.0000000000	0.0000000000
0.3400000000	0.0000000000	1.0000000000	0.0000000000	1.0000000000	0.0000000000	0.0000000000	24.4206375012	1.0000000000	397.7620558883	1.0000000000	0.0000000000	0.0000000000
0.3500000000	0.0000000000	1.0000000000	0.0000000000	1.0000000000	0.0000000000	0.0000000000	28.3018443785	1.0000000000	401.7504401027	1.0000000000	0.0000000000	0.0000000000
0.3600000000	0.0000000000	1.0000000000	0.0000000000	1.0000000000	0.0000000000	0.0000000000	32.6582319333	1.0000000000	409.8926293531	1.0000000000	0.0000000000	0.0000000000
0.3700000000	0.3860155530	1.0000000000	0.2631120053	1.0000000000	0.0000000000	0.0000000000	37.5294945065	1.0000000000	421.2022874567	1.0000000000	0.0000000000	0.0000000000
0.3800000000	0.2436377515	1.0000000000	0.6000819026	1.0000000000	0.0000000000	0.0000000000	43.3590869769	1.0000000000	435.1502451166	1.0000000000	0.0000000000	0.0000000000
0.3900000000	0.0543329200	1.0000000000	0.8650867091	1.0000000000	0.0000000000	0.0000000000	50.2661883896	1.0000000000	451.6384008760	1.0000000000	0.0000000000	0.0000000000
